<svg width="16" height="16" viewBox="0 0 16 16" fill="none" xmlns="http://www.w3.org/2000/svg">
<path d="M8 1.442C10.136 1.442 10.3893 1.45 11.2333 1.48867C13.4013 1.58733 14.414 2.616 14.5127 4.768C14.5513 5.6113 14.5587 5.8647 14.5587 8.0007C14.5587 10.1373 14.5507 10.39 14.5127 11.2333C14.4133 13.3833 13.4033 14.414 11.2333 14.5127C10.3893 14.5513 10.1373 14.5593 8 14.5593C5.864 14.5593 5.6107 14.5513 4.7673 14.5127C2.594 14.4133 1.58667 13.38 1.488 11.2327C1.44933 10.3893 1.44133 10.1367 1.44133 8C1.44133 5.864 1.45 5.6113 1.488 4.7673C1.58733 2.616 2.5973 1.58667 4.7673 1.488C5.6113 1.45 5.864 1.442 8 1.442ZM8 0C5.8273 0 5.5553 0.00933034 4.702 0.0480003C1.79667 0.18133 0.182 1.79333 0.0486698 4.7013C0.00932981 5.5553 0 5.8273 0 8C0 10.1727 0.00933034 10.4453 0.0480003 11.2987C0.18133 14.204 1.79333 15.8187 4.7013 15.952C5.5553 15.9907 5.8273 16 8 16C10.1727 16 10.4453 15.9907 11.2987 15.952C14.2013 15.8187 15.82 14.2067 15.9513 11.2987C15.9907 10.4453 16 10.1727 16 8C16 5.8273 15.9907 5.5553 15.952 4.702C15.8213 1.79933 14.2073 0.182 11.2993 0.0486698C10.4453 0.00932981 10.1727 0 8 0ZM8 3.892C5.7313 3.892 3.892 5.7313 3.892 8C3.892 10.2687 5.7313 12.1087 8 12.1087C10.2687 12.1087 12.108 10.2693 12.108 8C12.108 5.7313 10.2687 3.892 8 3.892ZM8 10.6667C6.5273 10.6667 5.3333 9.4733 5.3333 8C5.3333 6.5273 6.5273 5.3333 8 5.3333C9.4727 5.3333 10.6667 6.5273 10.6667 8C10.6667 9.4733 9.4727 10.6667 8 10.6667ZM12.2707 2.77C11.74 2.77 11.31 3.2 11.31 3.73C11.31 4.26 11.74 4.69 12.2707 4.69C12.8007 4.69 13.23 4.26 13.23 3.73C13.23 3.2 12.8007 2.77 12.2707 2.77Z" fill="white"/>
</svg>
