<svg width="17" height="14" viewBox="0 0 17 14" fill="none" xmlns="http://www.w3.org/2000/svg">
<path d="M14.3872 3.2432C14.3936 3.384 14.3952 3.5264 14.3952 3.6688C14.3952 8.0144 11.0896 13.024 5.04 13.024C3.184 13.024 1.4544 12.48 0 11.5472C0.2576 11.5776 0.5184 11.592 0.784 11.592C2.3248 11.592 3.7424 11.0672 4.8672 10.184C3.4288 10.1584 2.2144 9.208 1.7968 7.9008C1.9968 7.9392 2.2032 7.9584 2.4144 7.9584C2.7152 7.9584 3.0048 7.92 3.2816 7.8432C1.776 7.5424 0.6432 6.2128 0.6432 4.6192V4.5808C1.0864 4.8256 1.5952 4.9744 2.1328 4.992C1.2512 4.4016 0.6704 3.3952 0.6704 2.256C0.6704 1.6528 0.832 1.088 1.1152 0.6016C2.7376 2.592 5.16 3.9008 7.8928 4.0368C7.8368 3.7968 7.808 3.5456 7.808 3.288C7.808 1.472 9.28 0 11.0944 0C12.04 0 12.896 0.3984 13.4944 1.0384C14.2448 0.8912 14.9472 0.6176 15.5824 0.2416C15.3376 1.0096 14.816 1.6528 14.1376 2.0608C14.8016 1.9808 15.4368 1.8048 16.0256 1.5424C15.5872 2.2 15.0288 2.7792 14.3872 3.2432Z" fill="white"/>
</svg>
