<svg width="32" height="31" viewBox="0 0 32 31" fill="none" xmlns="http://www.w3.org/2000/svg">
<path d="M23.8462 12.0002C23.8462 5.38484 18.5385 0.0771484 11.9231 0.0771484C5.30769 0.0771484 0 5.38484 0 12.0002C0 15.6156 1.61538 18.7695 4.07692 21.0002L4.23077 21.3079C4.23077 21.3079 4.30769 21.3079 4.30769 21.231C6.38462 22.9233 9 24.0002 11.9231 24.0002C18 24.0002 23 19.4618 23.7692 13.5387H23.8462V12.0002ZM22.3846 12.0002H18.6923C18.6923 9.76946 18.3846 7.69253 17.7692 5.9233C17.8462 5.84638 17.9231 5.84638 18 5.76946C18.1538 5.69253 18.9231 5.23099 19.0769 5.07715C19.2308 5.00023 19.3846 4.9233 19.5385 4.76946C21.3077 6.69253 22.3846 9.231 22.3846 12.0002ZM17.6923 19.8464C17.9231 20.0002 18.1538 20.1541 18.3846 20.231C17.6154 20.7695 16.8462 21.3079 15.9231 21.6156C16.3846 21.0002 16.8462 20.3079 17.1538 19.5387C17.3077 19.6156 17.5385 19.7695 17.6923 19.8464ZM6.84615 19.7695C7.15385 20.4618 7.53846 21.0771 8 21.6156C7.23077 21.3079 6.46154 20.8464 5.84615 20.3848C6.15385 20.231 6.61539 19.9233 6.76923 19.8464C6.76923 19.8464 6.76923 19.7695 6.84615 19.7695ZM6.69231 12.0002C6.69231 10.0771 7 8.23099 7.46154 6.69253C8.61539 7.07715 9.84615 7.30792 11.1538 7.30792V12.0002H6.69231ZM6.23077 4.53869C5.84615 4.30792 5.53846 4.15407 5.30769 3.9233C6.07692 3.23099 7 2.69253 8 2.30792C7.46154 3.00023 7 3.84638 6.61539 4.69253C6.46154 4.69253 6.30769 4.61561 6.23077 4.53869ZM17.1538 4.46176C16.7692 3.61561 16.3846 2.9233 15.8462 2.30792C16.7692 2.69253 17.5385 3.15407 18.3077 3.76946C18.3077 3.76946 18.2308 3.76946 18.2308 3.84638C18.0769 3.9233 17.3846 4.38484 17.1538 4.46176ZM12.6923 1.69253C13.9231 2.07715 15.0769 3.30792 15.8462 5.15407C14.9231 5.53869 14 5.69253 12.6923 5.76946V1.69253ZM11.1538 1.69253V5.84638C10 5.84638 8.92308 5.61561 7.92308 5.30792C8.76923 3.38484 9.92308 2.07715 11.1538 1.69253ZM11.1538 13.4618V17.0002C9.69231 17.0771 8.61539 17.3079 7.53846 17.6925C7.15385 16.4618 6.84615 15.0002 6.69231 13.4618H11.1538ZM11.1538 18.5387V22.3079C10 21.9233 8.92308 20.7695 8.15385 19.1541C9 18.7695 9.92308 18.6156 11.1538 18.5387ZM12.6923 22.3079V18.5387C13.7692 18.5387 14.8462 18.6925 15.7692 19.0002C14.9231 20.7695 13.8462 21.9233 12.6923 22.3079ZM12.6923 17.0002V13.4618H17.0769C17 15.0002 16.6923 16.3848 16.3077 17.6156C15.1538 17.231 14 17.0771 12.6923 17.0002ZM12.6923 12.0002V7.30792C14.2308 7.23099 15.3077 7.00023 16.3846 6.61561C16.8462 8.23099 17.1538 10.0771 17.1538 12.0771H12.6923V12.0002ZM4.23077 5.00023C4.61538 5.23099 5 5.53869 5.53846 5.84638C5.69231 5.9233 5.84615 6.00023 6.07692 6.15407C5.53846 7.9233 5.23077 9.9233 5.23077 12.0002H1.46154C1.46154 9.30792 2.53846 6.84638 4.23077 5.00023ZM1.61538 13.4618H5.30769C5.38462 15.3079 5.76923 16.9233 6.23077 18.3848C6.15385 18.4618 6 18.5387 5.92308 18.5387C5.76923 18.6156 5 19.0771 4.84615 19.231C4.76923 19.3079 4.69231 19.3079 4.53846 19.3848C3 17.8464 1.92308 15.7695 1.61538 13.4618ZM19.4615 19.231C19.1538 19.0002 18.7692 18.7695 18.3846 18.5387C18.1538 18.3848 17.9231 18.3079 17.6923 18.1541C18.1538 16.7695 18.4615 15.1541 18.6154 13.4618H22.3077C21.9231 15.6925 20.9231 17.6925 19.4615 19.231Z" fill="white"/>
<path d="M32 18.9614C32 12.3248 26.6581 7 20 7C13.3419 7 8 12.3248 8 18.9614C8 22.5884 9.62581 25.7524 12.1032 27.9904L12.2581 28.299C12.2581 28.299 12.3355 28.299 12.3355 28.2219C14.4258 29.9196 17.0581 31 20 31C26.1161 31 31.1484 26.4469 31.9226 20.5048H32V18.9614ZM30.529 18.9614H26.8129C26.8129 16.7235 26.5032 14.6399 25.8839 12.865C25.9613 12.7878 26.0387 12.7878 26.1161 12.7106C26.271 12.6334 27.0452 12.1704 27.2 12.0161C27.3548 11.9389 27.5097 11.8617 27.6645 11.7074C29.4452 13.6367 30.529 16.1833 30.529 18.9614ZM25.8065 26.8328C26.0387 26.9871 26.271 27.1415 26.5032 27.2186C25.729 27.7588 24.9548 28.299 24.0258 28.6077C24.4903 27.9904 24.9548 27.2958 25.2645 26.5241C25.4194 26.6013 25.6516 26.7556 25.8065 26.8328ZM14.8903 26.7556C15.2 27.4502 15.5871 28.0675 16.0516 28.6077C15.2774 28.299 14.5032 27.836 13.8839 27.373C14.1935 27.2186 14.6581 26.91 14.8129 26.8328C14.8129 26.8328 14.8129 26.7556 14.8903 26.7556ZM14.7355 18.9614C14.7355 17.0322 15.0452 15.1801 15.5097 13.6367C16.671 14.0225 17.9097 14.254 19.2258 14.254V18.9614H14.7355ZM14.271 11.4759C13.8839 11.2444 13.5742 11.09 13.3419 10.8585C14.1161 10.164 15.0452 9.62379 16.0516 9.23794C15.5097 9.93248 15.0452 10.7814 14.6581 11.6302C14.5032 11.6302 14.3484 11.5531 14.271 11.4759ZM25.2645 11.3987C24.8774 10.5498 24.4903 9.85531 23.9484 9.23794C24.8774 9.62379 25.6516 10.0868 26.4258 10.7042C26.4258 10.7042 26.3484 10.7042 26.3484 10.7814C26.1935 10.8585 25.4968 11.3215 25.2645 11.3987ZM20.7742 8.62058C22.0129 9.00643 23.1742 10.2412 23.9484 12.0932C23.0194 12.4791 22.0903 12.6334 20.7742 12.7106V8.62058ZM19.2258 8.62058V12.7878C18.0645 12.7878 16.9806 12.5563 15.9742 12.2476C16.8258 10.3183 17.9871 9.00643 19.2258 8.62058ZM19.2258 20.4277V23.9775C17.7548 24.0547 16.671 24.2862 15.5871 24.672C15.2 23.4373 14.8903 21.9711 14.7355 20.4277H19.2258ZM19.2258 25.5209V29.3023C18.0645 28.9164 16.9806 27.7588 16.2065 26.1383C17.0581 25.7524 17.9871 25.5981 19.2258 25.5209ZM20.7742 29.3023V25.5209C21.8581 25.5209 22.9419 25.6752 23.871 25.9839C23.0194 27.7588 21.9355 28.9164 20.7742 29.3023ZM20.7742 23.9775V20.4277H25.1871C25.1097 21.9711 24.8 23.3601 24.4129 24.5949C23.2516 24.209 22.0903 24.0547 20.7742 23.9775ZM20.7742 18.9614V14.254C22.3226 14.1768 23.4065 13.9453 24.4903 13.5595C24.9548 15.1801 25.2645 17.0322 25.2645 19.0386H20.7742V18.9614ZM12.2581 11.9389C12.6452 12.1704 13.0323 12.4791 13.5742 12.7878C13.729 12.865 13.8839 12.9421 14.1161 13.0965C13.5742 14.8714 13.2645 16.8778 13.2645 18.9614H9.47097C9.47097 16.2605 10.5548 13.791 12.2581 11.9389ZM9.62581 20.4277H13.3419C13.4194 22.2797 13.8065 23.9003 14.271 25.3666C14.1935 25.4437 14.0387 25.5209 13.9613 25.5209C13.8065 25.5981 13.0323 26.0611 12.8774 26.2154C12.8 26.2926 12.7226 26.2926 12.5677 26.3698C11.0194 24.8264 9.93548 22.7428 9.62581 20.4277ZM27.5871 26.2154C27.2774 25.9839 26.8903 25.7524 26.5032 25.5209C26.271 25.3666 26.0387 25.2894 25.8065 25.135C26.271 23.746 26.5806 22.1254 26.7355 20.4277H30.4516C30.0645 22.6656 29.0581 24.672 27.5871 26.2154Z" fill="black"/>
</svg>
