<svg width="18" height="12" viewBox="0 0 18 12" fill="none" xmlns="http://www.w3.org/2000/svg">
<path d="M8.9947 0C8.9947 0 3.6354 -2.98023e-07 2.29034 0.3495C1.57013 0.5508 0.97709 1.1438 0.77585 1.8746C0.42634 3.2197 0.426331 6.0053 0.426331 6.0053C0.426331 6.0053 0.42634 8.8015 0.77585 10.1254C0.97709 10.8562 1.55954 11.4386 2.29034 11.6399C3.646 12 8.9947 12 8.9947 12C8.9947 12 14.3646 12 15.7096 11.6505C16.4404 11.4492 17.0229 10.8774 17.2135 10.136C17.5736 8.8015 17.5736 6.0159 17.5736 6.0159C17.5736 6.0159 17.5842 3.2197 17.2135 1.8746C17.0229 1.1438 16.4404 0.5614 15.7096 0.3707C14.3646 -1.19209e-07 8.9947 0 8.9947 0ZM7.2895 3.4316L11.7485 6.0053L7.2895 8.5684V3.4316Z" fill="white"/>
</svg>
